<?xml version="1.0" standalone="no"?>
<!DOCTYPE svg PUBLIC "-//W3C//DTD SVG 20010904//EN"
 "http://www.w3.org/TR/2001/REC-SVG-20010904/DTD/svg10.dtd">
<svg version="1.0" xmlns="http://www.w3.org/2000/svg"
 width="192.000000pt" height="192.000000pt" viewBox="0 0 192.000000 192.000000"
 preserveAspectRatio="xMidYMid meet">

<g transform="translate(0.000000,192.000000) scale(0.100000,-0.100000)"
fill="#000000" stroke="none">
<path d="M0 960 l0 -960 960 0 960 0 0 960 0 960 -960 0 -960 0 0 -960z m1152
869 c34 -7 55 -16 51 -22 -3 -6 -1 -7 6 -3 16 10 112 -25 104 -37 -3 -6 -1 -7
6 -3 23 14 160 -74 254 -163 92 -87 207 -257 191 -282 -4 -7 -3 -9 3 -6 12 8
47 -88 37 -104 -4 -7 -3 -9 3 -6 18 11 38 -119 38 -243 0 -124 -20 -254 -38
-243 -6 3 -7 1 -3 -6 10 -16 -25 -112 -37 -104 -6 3 -7 1 -3 -6 14 -23 -74
-160 -163 -254 -87 -92 -257 -207 -282 -191 -7 4 -9 3 -6 -3 8 -12 -88 -47
-104 -37 -7 4 -9 3 -6 -3 11 -18 -119 -38 -243 -38 -124 0 -254 20 -243 38 3
6 1 7 -6 3 -16 -10 -112 25 -104 37 3 6 1 7 -6 3 -25 -16 -195 99 -282 191
-89 94 -177 231 -163 254 4 7 3 9 -3 6 -12 -8 -47 88 -37 104 4 7 3 9 -3 6
-18 -11 -38 119 -38 243 0 124 20 254 38 243 6 -3 7 -1 3 6 -10 16 25 112 37
104 6 -3 7 -1 3 6 -14 23 74 160 163 254 87 92 257 207 282 191 7 -4 9 -3 6 3
-8 12 88 47 104 37 7 -4 9 -3 6 4 -5 6 19 15 65 22 40 7 78 14 83 16 20 7 231
-5 287 -17z"/>
<path d="M805 1805 c-38 -7 -85 -18 -104 -24 -19 -6 -39 -8 -45 -4 -6 3 -8 2
-3 -2 9 -11 -51 -37 -66 -28 -6 4 -7 1 -2 -7 6 -10 4 -12 -9 -7 -11 5 -15 3
-10 -5 5 -8 1 -9 -12 -4 -10 4 -15 4 -12 0 4 -3 -21 -24 -54 -46 -85 -55 -181
-149 -238 -235 -26 -39 -51 -69 -55 -65 -3 3 -3 -2 1 -12 5 -13 4 -17 -4 -12
-8 5 -10 1 -5 -10 5 -13 3 -15 -7 -9 -8 5 -11 4 -7 -2 9 -15 -17 -75 -28 -66
-4 5 -6 3 -2 -3 3 -5 -4 -44 -15 -85 -30 -106 -30 -332 0 -438 11 -41 18 -80
15 -85 -4 -6 -2 -8 2 -3 11 9 37 -51 28 -66 -4 -6 -1 -7 7 -2 10 6 12 4 7 -9
-5 -11 -3 -15 5 -10 8 5 9 1 4 -12 -4 -10 -4 -15 -1 -12 4 4 29 -26 55 -65 57
-86 153 -180 238 -235 33 -22 58 -43 54 -46 -3 -4 2 -4 12 0 13 5 17 4 12 -4
-5 -8 -1 -10 10 -5 13 5 15 3 9 -7 -5 -8 -4 -11 2 -7 15 9 75 -17 66 -28 -5
-4 -3 -6 3 -2 5 3 44 -4 85 -15 106 -30 332 -30 438 0 41 11 80 18 85 15 6 -4
8 -2 3 2 -9 11 51 37 66 28 6 -4 7 -1 2 7 -6 10 -4 12 9 7 11 -5 15 -3 10 5
-5 8 -1 9 12 4 10 -4 15 -4 12 0 -4 3 21 24 54 46 85 55 181 149 238 235 26
39 51 69 55 65 3 -3 3 2 -1 12 -5 13 -4 17 4 12 8 -5 10 -1 5 10 -5 13 -3 15
7 9 8 -5 11 -4 7 2 -9 15 17 75 28 66 4 -5 6 -3 2 3 -3 5 4 44 15 85 30 106
30 332 0 438 -11 41 -18 80 -15 85 4 6 2 8 -2 3 -11 -9 -37 51 -28 66 4 6 1 7
-7 2 -10 -6 -12 -4 -7 9 5 11 3 15 -5 10 -8 -5 -9 -1 -4 12 4 10 4 15 1 12 -4
-4 -29 26 -55 65 -57 86 -153 180 -238 235 -33 22 -58 43 -54 46 3 4 -2 4 -12
0 -13 -5 -17 -4 -12 4 5 8 1 10 -10 5 -13 -5 -15 -3 -9 7 5 8 4 11 -2 7 -15
-9 -75 17 -66 28 5 4 3 6 -3 2 -5 -3 -44 3 -85 14 -97 27 -279 33 -374 14z
m235 -505 c38 -106 71 -194 72 -195 2 -1 89 -35 195 -76 105 -40 191 -74 190
-75 -1 0 -87 -32 -192 -69 -104 -37 -191 -69 -193 -70 -1 -1 -34 -89 -72 -195
-38 -106 -71 -194 -73 -197 -3 -2 -22 42 -44 99 -22 57 -56 146 -77 198 l-36
95 -153 55 c-83 30 -171 61 -194 70 l-42 16 194 74 195 75 38 100 c22 55 56
144 77 198 20 54 39 96 42 94 2 -3 35 -91 73 -197z"/>
<path d="M906 1014 c-15 -16 -26 -38 -26 -54 0 -36 44 -80 80 -80 16 0 38 11
54 26 15 16 26 38 26 54 0 36 -44 80 -80 80 -16 0 -38 -11 -54 -26z"/>
<path d="M339 1573 l-34 -38 38 34 c34 33 42 41 34 41 -2 0 -19 -17 -38 -37z"/>
<path d="M1570 1575 c19 -19 36 -35 39 -35 3 0 -10 16 -29 35 -19 19 -36 35
-39 35 -3 0 10 -16 29 -35z"/>
<path d="M340 345 c19 -19 36 -35 39 -35 3 0 -10 16 -29 35 -19 19 -36 35 -39
35 -3 0 10 -16 29 -35z"/>
<path d="M1569 343 l-34 -38 38 34 c20 19 37 36 37 38 0 8 -8 0 -41 -34z"/>
</g>
</svg>
