<?xml version="1.0" standalone="no"?>
<!DOCTYPE svg PUBLIC "-//W3C//DTD SVG 20010904//EN"
 "http://www.w3.org/TR/2001/REC-SVG-20010904/DTD/svg10.dtd">
<svg version="1.0" xmlns="http://www.w3.org/2000/svg"
 width="512.000000pt" height="512.000000pt" viewBox="0 0 512.000000 512.000000"
 preserveAspectRatio="xMidYMid meet">

<g transform="translate(0.000000,512.000000) scale(0.100000,-0.100000)"
fill="#000000" stroke="none">
<path d="M0 2560 l0 -2560 2560 0 2560 0 0 2560 0 2560 -2560 0 -2560 0 0
-2560z m2738 2354 c50 -4 89 -11 86 -15 -3 -5 2 -6 11 -3 24 10 236 -27 228
-39 -4 -6 -1 -7 6 -2 17 10 192 -36 184 -48 -3 -6 -1 -7 5 -3 16 10 93 -15 85
-27 -3 -6 -2 -7 4 -4 14 9 83 -14 76 -26 -3 -6 -1 -7 5 -3 22 13 257 -103 421
-209 251 -161 525 -435 686 -686 106 -164 222 -399 209 -421 -4 -6 -3 -8 3 -5
12 7 35 -62 26 -76 -3 -6 -2 -7 4 -4 12 8 37 -69 27 -85 -4 -6 -3 -8 3 -5 12
8 58 -167 48 -184 -5 -7 -4 -10 2 -6 12 8 49 -204 39 -228 -3 -9 -2 -14 3 -11
9 6 21 -138 21 -264 0 -126 -12 -270 -21 -264 -5 3 -6 -2 -3 -11 10 -24 -27
-236 -39 -228 -6 4 -7 1 -2 -6 10 -17 -36 -192 -48 -184 -6 3 -7 1 -3 -5 10
-16 -15 -93 -27 -85 -6 3 -7 2 -4 -4 9 -14 -14 -83 -26 -76 -6 3 -7 1 -3 -5
13 -22 -103 -257 -209 -421 -161 -251 -435 -525 -686 -686 -164 -106 -399
-222 -421 -209 -6 4 -8 3 -5 -3 7 -12 -62 -35 -76 -26 -6 3 -7 2 -4 -4 8 -12
-69 -37 -85 -27 -6 4 -8 3 -5 -3 8 -12 -167 -58 -184 -48 -7 5 -10 4 -6 -2 8
-12 -204 -49 -228 -39 -9 3 -14 2 -11 -3 6 -9 -138 -21 -264 -21 -126 0 -270
12 -264 21 3 5 -2 6 -11 3 -24 -10 -236 27 -228 39 4 6 1 7 -6 2 -17 -10 -192
36 -184 48 3 6 1 7 -5 3 -16 -10 -93 15 -85 27 3 6 2 7 -4 4 -14 -9 -83 14
-76 26 3 6 1 7 -5 3 -22 -13 -257 103 -421 209 -251 161 -525 435 -686 686
-106 164 -222 399 -209 421 4 6 3 8 -3 5 -12 -7 -35 62 -26 76 3 6 2 7 -4 4
-12 -8 -37 69 -27 85 4 6 3 8 -3 5 -12 -8 -58 167 -48 184 5 7 4 10 -2 6 -12
-8 -49 204 -39 228 3 9 2 14 -3 11 -9 -6 -21 138 -21 264 0 126 12 270 21 264
5 -3 6 2 3 11 -10 24 27 236 39 228 6 -4 7 -1 2 6 -10 17 36 192 48 184 6 -3
7 -1 3 5 -10 16 15 93 27 85 6 -3 7 -2 4 4 -9 14 14 83 26 76 6 -3 7 -1 3 5
-13 22 103 257 209 421 161 251 435 525 686 686 164 106 399 222 421 209 6 -4
8 -3 5 3 -7 12 62 35 76 26 6 -3 7 -2 4 4 -8 12 69 37 85 27 6 -4 8 -3 5 3 -8
12 167 58 184 48 7 -5 10 -4 6 2 -8 12 204 49 228 39 9 -3 13 -2 10 4 -10 16
284 25 443 14z"/>
<path d="M2375 4874 c-203 -21 -391 -60 -550 -114 -48 -16 -92 -27 -98 -23 -6
3 -7 1 -3 -5 7 -11 -8 -16 -42 -15 -7 1 -11 -2 -8 -5 9 -9 -55 -33 -68 -25 -6
3 -8 3 -4 -2 7 -7 -146 -87 -169 -88 -7 0 -10 -4 -8 -8 5 -7 -55 -35 -68 -31
-5 1 -6 -1 -3 -6 3 -5 -14 -19 -36 -32 -90 -50 -288 -210 -398 -320 -110 -110
-270 -308 -320 -398 -13 -22 -27 -39 -32 -36 -5 3 -7 2 -6 -3 4 -13 -24 -73
-31 -68 -4 2 -8 -1 -8 -8 -1 -23 -81 -176 -88 -169 -5 4 -5 2 -2 -4 8 -13 -16
-77 -25 -68 -3 3 -6 -1 -5 -8 1 -34 -4 -49 -15 -42 -6 4 -8 3 -5 -3 4 -6 -7
-50 -23 -98 -83 -245 -114 -449 -114 -735 0 -286 31 -490 114 -735 16 -48 27
-92 23 -98 -3 -6 -1 -7 5 -3 11 7 16 -8 15 -42 -1 -7 2 -11 5 -8 9 9 33 -55
25 -68 -3 -6 -3 -8 2 -4 7 7 87 -146 88 -169 0 -7 4 -10 8 -8 7 5 35 -55 31
-68 -1 -5 1 -6 6 -3 5 3 19 -14 32 -36 50 -90 210 -288 320 -398 110 -110 308
-270 398 -320 22 -13 39 -27 36 -32 -3 -5 -2 -7 3 -6 13 4 73 -24 68 -31 -2
-4 1 -8 8 -8 23 -1 176 -81 169 -88 -4 -5 -2 -5 4 -2 13 8 77 -16 68 -25 -3
-3 1 -6 8 -5 34 1 49 -4 42 -15 -4 -6 -3 -8 3 -5 6 4 50 -7 98 -23 245 -83
449 -114 735 -114 286 0 490 31 735 114 48 16 92 27 98 23 6 -3 7 -1 3 5 -7
11 8 16 42 15 7 -1 11 2 8 5 -9 9 55 33 68 25 6 -3 8 -3 4 2 -7 7 146 87 169
88 7 0 10 4 8 8 -5 7 55 35 68 31 5 -1 6 1 3 6 -3 5 14 19 36 32 90 50 288
210 398 320 110 110 270 308 320 398 13 22 27 39 32 36 5 -3 7 -2 6 3 -4 13
24 73 31 68 4 -2 8 1 8 8 1 23 81 176 88 169 5 -4 5 -2 2 4 -8 13 16 77 25 68
3 -3 6 1 5 8 -1 34 4 49 15 42 6 -4 8 -3 5 3 -4 6 7 50 23 98 83 245 114 449
114 735 0 286 -31 490 -114 735 -16 48 -27 92 -23 98 3 6 1 7 -5 3 -11 -7 -16
8 -15 42 1 7 -2 11 -5 8 -9 -9 -33 55 -25 68 3 6 3 8 -2 4 -7 -7 -87 146 -88
169 0 7 -4 10 -8 8 -7 -5 -35 55 -31 68 1 5 -1 6 -6 3 -5 -3 -19 14 -32 36
-50 90 -210 288 -320 398 -110 110 -308 270 -398 320 -22 13 -39 27 -36 32 3
5 2 7 -3 6 -13 -4 -73 24 -68 31 2 4 -1 8 -8 8 -23 1 -176 81 -169 88 4 5 2 5
-4 2 -13 -8 -77 16 -68 25 3 3 -1 6 -8 5 -34 -1 -49 4 -42 15 4 6 3 8 -3 5 -6
-4 -50 7 -98 23 -116 39 -265 75 -395 95 -101 15 -441 28 -525 19z m385 -1404
c104 -287 191 -524 192 -525 2 -1 238 -90 525 -196 329 -122 516 -196 505
-200 -9 -4 -244 -89 -522 -189 -278 -101 -506 -184 -508 -185 -1 -1 -88 -238
-192 -525 -104 -287 -191 -524 -193 -527 -3 -2 -45 105 -95 239 -50 134 -138
371 -196 528 l-106 285 -428 155 c-235 85 -471 170 -524 190 l-97 36 524 194
525 195 106 285 c58 157 146 394 196 528 50 134 92 241 95 239 2 -3 89 -240
193 -527z"/>
<path d="M2492 2759 c-49 -15 -118 -89 -132 -141 -25 -90 11 -182 92 -235 35
-24 52 -28 108 -28 56 0 73 4 108 28 23 15 54 46 69 69 24 35 28 52 28 108 0
56 -4 73 -28 108 -53 81 -155 119 -245 91z"/>
<path d="M964 4288 l-19 -23 23 19 c21 18 27 26 19 26 -2 0 -12 -10 -23 -22z"/>
<path d="M999 4293 c-13 -16 -12 -17 4 -4 9 7 17 15 17 17 0 8 -8 3 -21 -13z"/>
<path d="M4100 4306 c0 -2 8 -10 18 -17 15 -13 16 -12 3 4 -13 16 -21 21 -21
13z"/>
<path d="M4145 4290 c10 -11 20 -20 23 -20 3 0 -3 9 -13 20 -10 11 -20 20 -23
20 -3 0 3 -9 13 -20z"/>
<path d="M900 4215 c-24 -25 -42 -45 -39 -45 3 0 25 20 49 45 24 25 42 45 39
45 -3 0 -25 -20 -49 -45z"/>
<path d="M4210 4218 c41 -45 50 -53 50 -45 0 2 -21 23 -47 47 l-48 45 45 -47z"/>
<path d="M824 4148 l-19 -23 23 19 c12 11 22 21 22 23 0 8 -8 2 -26 -19z"/>
<path d="M4285 4150 c10 -11 20 -20 23 -20 3 0 -3 9 -13 20 -10 11 -20 20 -23
20 -3 0 3 -9 13 -20z"/>
<path d="M819 4113 c-13 -16 -12 -17 4 -4 9 7 17 15 17 17 0 8 -8 3 -21 -13z"/>
<path d="M4280 4126 c0 -2 8 -10 18 -17 15 -13 16 -12 3 4 -13 16 -21 21 -21
13z"/>
<path d="M810 1016 c0 -2 8 -10 18 -17 15 -13 16 -12 3 4 -13 16 -21 21 -21
13z"/>
<path d="M4289 1003 c-13 -16 -12 -17 4 -4 9 7 17 15 17 17 0 8 -8 3 -21 -13z"/>
<path d="M825 970 c10 -11 20 -20 23 -20 3 0 -3 9 -13 20 -10 11 -20 20 -23
20 -3 0 3 -9 13 -20z"/>
<path d="M4284 968 l-19 -23 23 19 c21 18 27 26 19 26 -2 0 -12 -10 -23 -22z"/>
<path d="M900 908 c41 -45 50 -53 50 -45 0 2 -21 23 -47 47 l-48 45 45 -47z"/>
<path d="M4210 905 c-24 -25 -42 -45 -39 -45 3 0 25 20 49 45 24 25 42 45 39
45 -3 0 -25 -20 -49 -45z"/>
<path d="M965 830 c10 -11 20 -20 23 -20 3 0 -3 9 -13 20 -10 11 -20 20 -23
20 -3 0 3 -9 13 -20z"/>
<path d="M4144 828 l-19 -23 23 19 c21 18 27 26 19 26 -2 0 -12 -10 -23 -22z"/>
<path d="M990 836 c0 -2 8 -10 18 -17 15 -13 16 -12 3 4 -13 16 -21 21 -21 13z"/>
<path d="M4109 823 c-13 -16 -12 -17 4 -4 16 13 21 21 13 21 -2 0 -10 -8 -17
-17z"/>
</g>
</svg>
